HIERARCHY
ROOT newVegas:Hips
{
	OFFSET 0.000000 96.479958 0.000000
	CHANNELS 6 Xposition Yposition Zposition Xrotation Yrotation Zrotation
	JOINT newVegas:Pelvis
	{
		OFFSET 0.000000 0.000000 0.000000
		CHANNELS 3 Xrotation Yrotation Zrotation
		JOINT newVegas:LeftUpLeg
		{
			OFFSET 18.735201 -5.666702 -4.541200
			CHANNELS 3 Xrotation Yrotation Zrotation
			JOINT newVegas:LeftLeg
			{
				OFFSET -0.021200 -31.938179 0.493100
				CHANNELS 3 Xrotation Yrotation Zrotation
				JOINT newVegas:LeftFoot
				{
					OFFSET 0.021200 -31.938179 -4.336299
					CHANNELS 3 Xrotation Yrotation Zrotation
					JOINT newVegas:LeftToeBase
					{
						OFFSET 0.943001 -26.722000 15.023500
						CHANNELS 3 Xrotation Yrotation Zrotation
						End Site
						{
							OFFSET 0.000000 30.670183 0.000000
						}
					}
				}
				JOINT newVegas:Left_PantLeg
				{
					OFFSET 0.663870 -9.044666 -1.108900
					CHANNELS 3 Xrotation Yrotation Zrotation
					End Site
					{
						OFFSET 1.415995 20.635357 0.000000
					}
				}
			}
		}
		JOINT newVegas:RightUpLeg
		{
			OFFSET -18.735201 -5.666702 -4.541200
			CHANNELS 3 Xrotation Yrotation Zrotation
			JOINT newVegas:RightLeg
			{
				OFFSET 0.018946 -31.938133 0.493100
				CHANNELS 3 Xrotation Yrotation Zrotation
				JOINT newVegas:RightFoot
				{
					OFFSET -0.018946 -31.938126 -4.336299
					CHANNELS 3 Xrotation Yrotation Zrotation
					JOINT newVegas:RightToeBase
					{
						OFFSET -0.943001 -26.722004 15.023500
						CHANNELS 3 Xrotation Yrotation Zrotation
						End Site
						{
							OFFSET 0.000000 30.670187 0.000000
						}
					}
				}
				JOINT newVegas:Right_PantLeg
				{
					OFFSET -0.661674 -9.044716 -1.108900
					CHANNELS 3 Xrotation Yrotation Zrotation
					End Site
					{
						OFFSET -1.415958 20.635269 0.000000
					}
				}
			}
		}
	}
	JOINT newVegas:Spine
	{
		OFFSET 0.000000 10.199997 -0.299500
		CHANNELS 3 Xrotation Yrotation Zrotation
		JOINT newVegas:Spine1
		{
			OFFSET 0.000000 11.900002 -1.516600
			CHANNELS 3 Xrotation Yrotation Zrotation
			JOINT newVegas:Spine2
			{
				OFFSET 0.000000 13.600006 -2.842500
				CHANNELS 3 Xrotation Yrotation Zrotation
				JOINT newVegas:Neck
				{
					OFFSET 0.000000 9.624100 -2.890100
					CHANNELS 3 Xrotation Yrotation Zrotation
					JOINT newVegas:Head
					{
						OFFSET 0.000000 14.068802 -1.351900
						CHANNELS 3 Xrotation Yrotation Zrotation
						JOINT newVegas:Hair_Back
						{
							OFFSET 0.000000 3.231903 -17.524799
							CHANNELS 3 Xrotation Yrotation Zrotation
							End Site
							{
								OFFSET 0.000000 19.849884 0.000000
							}
						}
						JOINT newVegas:Hair_Front
						{
							OFFSET 0.000000 31.260406 4.573800
							CHANNELS 3 Xrotation Yrotation Zrotation
							JOINT newVegas:Hair_Front1
							{
								OFFSET 0.000000 2.284103 11.993300
								CHANNELS 3 Xrotation Yrotation Zrotation
								JOINT newVegas:Hair_Front2
								{
									OFFSET 0.000000 2.284103 11.993300
									CHANNELS 3 Xrotation Yrotation Zrotation
									End Site
									{
										OFFSET 0.000000 12.208862 0.000000
									}
								}
							}
						}
						JOINT newVegas:Jowel
						{
							OFFSET 0.000000 -7.458206 6.864100
							CHANNELS 3 Xrotation Yrotation Zrotation
							End Site
							{
								OFFSET 0.000000 19.849884 0.000000
							}
						}
					}
				}
				JOINT newVegas:LeftShoulder
				{
					OFFSET 15.263000 10.923401 -0.547700
					CHANNELS 3 Xrotation Yrotation Zrotation
					JOINT newVegas:LeftArm
					{
						OFFSET 25.438599 -2.830597 -13.032500
						CHANNELS 3 Xrotation Yrotation Zrotation
						JOINT newVegas:LeftForeArm
						{
							OFFSET 29.960503 0.000000 0.000000
							CHANNELS 3 Xrotation Yrotation Zrotation
							JOINT newVegas:LeftHand
							{
								OFFSET 27.849251 0.000000 0.000000
								CHANNELS 3 Xrotation Yrotation Zrotation
								JOINT newVegas:LeftHandThumb1
								{
									OFFSET 4.487587 -3.305161 6.305391
									CHANNELS 3 Xrotation Yrotation Zrotation
									JOINT newVegas:LeftHandThumb2
									{
										OFFSET 5.480453 -3.164139 3.164143
										CHANNELS 3 Xrotation Yrotation Zrotation
										JOINT newVegas:LeftHandThumb3
										{
											OFFSET 5.159721 -2.978973 2.978967
											CHANNELS 3 Xrotation Yrotation Zrotation
											End Site
											{
												OFFSET 2.494507 5.926697 1.738678
											}
										}
									}
								}
								JOINT newVegas:LeftHandIndex1
								{
									OFFSET 18.578728 -0.527832 5.208049
									CHANNELS 3 Xrotation Yrotation Zrotation
									JOINT newVegas:LeftHandIndex2
									{
										OFFSET 3.192009 0.000000 0.000000
										CHANNELS 3 Xrotation Yrotation Zrotation
										JOINT newVegas:LeftHandIndex3
										{
											OFFSET 3.835129 0.000000 0.000000
											CHANNELS 3 Xrotation Yrotation Zrotation
											End Site
											{
												OFFSET -0.034599 3.816971 0.371180
											}
										}
									}
								}
								JOINT newVegas:LeftHandMiddle1
								{
									OFFSET 18.476105 0.000000 0.000000
									CHANNELS 3 Xrotation Yrotation Zrotation
									JOINT newVegas:LeftHandMiddle2
									{
										OFFSET 3.324875 0.000000 0.000000
										CHANNELS 3 Xrotation Yrotation Zrotation
										JOINT newVegas:LeftHandMiddle3
										{
											OFFSET 4.596550 0.000000 0.000000
											CHANNELS 3 Xrotation Yrotation Zrotation
											End Site
											{
												OFFSET 0.057701 4.578827 0.399218
											}
										}
									}
								}
								JOINT newVegas:LeftHandRing1
								{
									OFFSET 17.732719 0.121887 -4.201567
									CHANNELS 3 Xrotation Yrotation Zrotation
									JOINT newVegas:LeftHandRing2
									{
										OFFSET 2.733170 0.000000 0.000000
										CHANNELS 3 Xrotation Yrotation Zrotation
										JOINT newVegas:LeftHandRing3
										{
											OFFSET 3.178268 0.000000 0.000000
											CHANNELS 3 Xrotation Yrotation Zrotation
											End Site
											{
												OFFSET 0.119102 3.170624 0.185394
											}
										}
									}
								}
								JOINT newVegas:LeftHandPinky1
								{
									OFFSET 15.989624 -0.606689 -7.535461
									CHANNELS 3 Xrotation Yrotation Zrotation
									JOINT newVegas:LeftHandPinky2
									{
										OFFSET 2.538986 0.000000 0.000000
										CHANNELS 3 Xrotation Yrotation Zrotation
										JOINT newVegas:LeftHandPinky3
										{
											OFFSET 2.593102 0.000000 0.000000
											CHANNELS 3 Xrotation Yrotation Zrotation
											End Site
											{
												OFFSET -0.150902 2.584198 0.152708
											}
										}
									}
								}
							}
							JOINT newVegas:Left_Sleeve
							{
								OFFSET 0.267448 -0.649796 0.577675
								CHANNELS 3 Xrotation Yrotation Zrotation
								End Site
								{
									OFFSET 0.000000 15.991241 0.000000
								}
							}
							JOINT newVegas:Left_CapeC
							{
								OFFSET 15.715958 -8.608795 -6.935905
								CHANNELS 3 Xrotation Yrotation Zrotation
								JOINT newVegas:Left_CapeC1
								{
									OFFSET 0.000000 -8.688499 0.000000
									CHANNELS 3 Xrotation Yrotation Zrotation
									End Site
									{
										OFFSET 0.000000 8.688499 0.000000
									}
								}
							}
						}
						JOINT newVegas:Left_CapeB
						{
							OFFSET 26.118385 -8.608795 -7.079235
							CHANNELS 3 Xrotation Yrotation Zrotation
							JOINT newVegas:Left_CapeB1
							{
								OFFSET 0.000000 -8.688499 0.000000
								CHANNELS 3 Xrotation Yrotation Zrotation
								End Site
								{
									OFFSET 0.000000 8.688499 0.000000
								}
							}
						}
						JOINT newVegas:Left_CapeA
						{
							OFFSET 5.115639 -8.608795 -10.395809
							CHANNELS 3 Xrotation Yrotation Zrotation
							JOINT newVegas:Left_CapeA1
							{
								OFFSET 0.000000 -8.688499 0.000000
								CHANNELS 3 Xrotation Yrotation Zrotation
								End Site
								{
									OFFSET 0.000000 8.688499 0.000000
								}
							}
						}
					}
				}
				JOINT newVegas:RightShoulder
				{
					OFFSET -15.263000 10.923401 -0.547700
					CHANNELS 3 Xrotation Yrotation Zrotation
					JOINT newVegas:RightArm
					{
						OFFSET -25.438599 -2.830597 -13.032500
						CHANNELS 3 Xrotation Yrotation Zrotation
						JOINT newVegas:RightForeArm
						{
							OFFSET -29.960503 0.000000 0.000000
							CHANNELS 3 Xrotation Yrotation Zrotation
							JOINT newVegas:RightHand
							{
								OFFSET -27.849251 0.000000 0.000000
								CHANNELS 3 Xrotation Yrotation Zrotation
								JOINT newVegas:RightHandThumb1
								{
									OFFSET -4.487587 -3.305161 6.305391
									CHANNELS 3 Xrotation Yrotation Zrotation
									JOINT newVegas:RightHandThumb2
									{
										OFFSET -5.480453 -3.164139 3.164143
										CHANNELS 3 Xrotation Yrotation Zrotation
										JOINT newVegas:RightHandThumb3
										{
											OFFSET -5.159721 -2.978973 2.978967
											CHANNELS 3 Xrotation Yrotation Zrotation
											End Site
											{
												OFFSET -2.494507 5.926697 1.738678
											}
										}
									}
								}
								JOINT newVegas:RightHandIndex1
								{
									OFFSET -18.578728 -0.527832 5.208049
									CHANNELS 3 Xrotation Yrotation Zrotation
									JOINT newVegas:RightHandIndex2
									{
										OFFSET -3.192009 0.000000 0.000000
										CHANNELS 3 Xrotation Yrotation Zrotation
										JOINT newVegas:RightHandIndex3
										{
											OFFSET -3.835129 0.000000 0.000000
											CHANNELS 3 Xrotation Yrotation Zrotation
											End Site
											{
												OFFSET 0.034599 3.816971 0.371180
											}
										}
									}
								}
								JOINT newVegas:RightHandMiddle1
								{
									OFFSET -18.476105 0.000000 0.000000
									CHANNELS 3 Xrotation Yrotation Zrotation
									JOINT newVegas:RightHandMiddle2
									{
										OFFSET -3.324875 0.000000 0.000000
										CHANNELS 3 Xrotation Yrotation Zrotation
										JOINT newVegas:RightHandMiddle3
										{
											OFFSET -4.596550 0.000000 0.000000
											CHANNELS 3 Xrotation Yrotation Zrotation
											End Site
											{
												OFFSET -0.057701 4.578827 0.399218
											}
										}
									}
								}
								JOINT newVegas:RightHandRing1
								{
									OFFSET -17.732719 0.121887 -4.201567
									CHANNELS 3 Xrotation Yrotation Zrotation
									JOINT newVegas:RightHandRing2
									{
										OFFSET -2.733170 0.000000 0.000000
										CHANNELS 3 Xrotation Yrotation Zrotation
										JOINT newVegas:RightHandRing3
										{
											OFFSET -3.178268 0.000000 0.000000
											CHANNELS 3 Xrotation Yrotation Zrotation
											End Site
											{
												OFFSET -0.119102 3.170624 0.185394
											}
										}
									}
								}
								JOINT newVegas:RightHandPinky1
								{
									OFFSET -15.989624 -0.606689 -7.535461
									CHANNELS 3 Xrotation Yrotation Zrotation
									JOINT newVegas:RightHandPinky2
									{
										OFFSET -2.538986 0.000000 0.000000
										CHANNELS 3 Xrotation Yrotation Zrotation
										JOINT newVegas:RightHandPinky3
										{
											OFFSET -2.593102 0.000000 0.000000
											CHANNELS 3 Xrotation Yrotation Zrotation
											End Site
											{
												OFFSET 0.150902 2.584198 0.152708
											}
										}
									}
								}
							}
							JOINT newVegas:Right_CapeC
							{
								OFFSET -15.715958 -8.608795 -6.935905
								CHANNELS 3 Xrotation Yrotation Zrotation
								JOINT newVegas:Right_CapeC1
								{
									OFFSET 0.000000 -8.688499 0.000000
									CHANNELS 3 Xrotation Yrotation Zrotation
									End Site
									{
										OFFSET 0.000000 8.688499 0.000000
									}
								}
							}
							JOINT newVegas:Right_Sleeve
							{
								OFFSET -0.267448 -0.649994 0.577675
								CHANNELS 3 Xrotation Yrotation Zrotation
								End Site
								{
									OFFSET 0.000000 15.991302 0.000000
								}
							}
						}
						JOINT newVegas:Right_CapeA
						{
							OFFSET -5.115540 -8.608795 -10.395824
							CHANNELS 3 Xrotation Yrotation Zrotation
							JOINT newVegas:Right_CapeA1
							{
								OFFSET 0.000000 -8.688499 0.000000
								CHANNELS 3 Xrotation Yrotation Zrotation
								End Site
								{
									OFFSET 0.000000 8.688499 0.000000
								}
							}
						}
						JOINT newVegas:Right_CapeB
						{
							OFFSET -26.118187 -8.608795 -7.079266
							CHANNELS 3 Xrotation Yrotation Zrotation
							JOINT newVegas:Right_CapeB1
							{
								OFFSET 0.000000 -8.688499 0.000000
								CHANNELS 3 Xrotation Yrotation Zrotation
								End Site
								{
									OFFSET 0.000000 8.688499 0.000000
								}
							}
						}
					}
				}
				JOINT newVegas:Left_Collar
				{
					OFFSET 18.625099 8.655502 8.828100
					CHANNELS 3 Xrotation Yrotation Zrotation
					JOINT newVegas:Left_Collar1
					{
						OFFSET 14.783401 10.540405 -1.259500
						CHANNELS 3 Xrotation Yrotation Zrotation
						End Site
						{
							OFFSET 0.000000 18.199875 0.000000
						}
					}
				}
				JOINT newVegas:Collar_Back
				{
					OFFSET 0.000000 15.630707 -20.132601
					CHANNELS 3 Xrotation Yrotation Zrotation
					End Site
					{
						OFFSET 0.000000 22.523010 0.000000
					}
				}
				JOINT newVegas:Left_Peck
				{
					OFFSET 17.239599 -5.132599 25.482599
					CHANNELS 3 Xrotation Yrotation Zrotation
					End Site
					{
						OFFSET 0.000000 22.523010 0.000000
					}
				}
				JOINT newVegas:Right_Peck
				{
					OFFSET -17.239599 -5.132202 25.482599
					CHANNELS 3 Xrotation Yrotation Zrotation
					End Site
					{
						OFFSET 0.000000 22.523010 0.000000
					}
				}
				JOINT newVegas:Right_Collar
				{
					OFFSET -18.625099 8.655792 8.828100
					CHANNELS 3 Xrotation Yrotation Zrotation
					JOINT newVegas:Right_Collar1
					{
						OFFSET -14.783401 10.539993 -1.259500
						CHANNELS 3 Xrotation Yrotation Zrotation
						End Site
						{
							OFFSET 0.000000 18.199631 0.000000
						}
					}
				}
			}
		}
		JOINT newVegas:Belly
		{
			OFFSET 0.000000 -6.540398 9.014299
			CHANNELS 3 Xrotation Yrotation Zrotation
			End Site
			{
				OFFSET 0.000000 11.566666 0.000000
			}
		}
	}
	JOINT newVegas:ElvisFacialAnim_Joint
	{
		OFFSET 1.000000 -95.330101 -8.825800
		CHANNELS 3 Xrotation Yrotation Zrotation
		End Site
		{
			OFFSET 0.000000 35.315800 0.000000
		}
	}
}
MOTION
Frames: 4
Frame Time: 0.033333
4.282720 88.365913 2.270896 19.522936 62.952440 -18.926046 0.000000 0.000000 -0.000000 -28.316609 4.842025 16.332248 43.872593 -3.308394 -0.131469 -24.129709 3.465211 -12.011648 -0.000000 -0.000001 -0.000000 -0.000003 0.000001 0.000000 -35.851841 -5.978274 -22.517679 29.660441 -7.629205 -1.632157 8.188195 -17.374067 16.008650 -0.000000 0.000002 0.000000 0.000000 0.000001 -0.000003 2.407939 -0.681846 1.942474 4.816255 -1.707258 2.224047 4.819751 -1.698823 2.222571 0.129103 -8.358466 -0.927763 0.129092 -8.358462 -0.927761 -0.000001 -0.000000 -0.000000 0.129169 -8.358447 -0.927752 0.129108 -8.358461 -0.927763 -0.000000 -0.000002 0.000002 -0.000001 -0.000000 -0.000000 2.508343 -10.156884 8.235490 -4.203129 -9.966198 -78.289445 0.000000 -17.654984 -0.000000 -2.313218 -25.300737 7.997826 3.791397 1.451350 -4.356750 14.493723 27.921699 12.956757 0.000001 -0.000001 0.000001 0.095254 2.965031 -5.912792 0.126843 1.213712 -11.931646 0.000003 -0.000002 0.000000 0.322044 4.079748 -17.044273 0.284393 1.804848 -17.908152 -0.000002 0.000001 0.000000 0.635431 4.882585 -25.483173 0.480467 2.325402 -23.345131 0.000002 0.000003 0.000001 0.810120 5.219179 -29.196593 0.596315 2.577035 -26.053304 -0.000002 -0.000002 -0.000001 -0.000001 -0.000000 0.000001 -0.000001 -0.000000 0.000001 -0.000002 -0.000000 0.000001 -0.000001 -0.000001 -0.000000 -0.000001 0.000000 -0.000000 -0.000001 -0.000001 -0.000000 -0.000003 -0.000001 -0.000001 3.403015 3.532829 10.911950 -5.319845 -15.984191 57.708466 0.000027 58.884188 -0.000027 40.575149 26.135439 5.522757 -2.312497 -18.915755 11.446013 17.303424 -5.952142 -26.984211 0.000000 -0.000002 -0.000001 4.283226 -11.086063 12.999006 0.084359 -0.883325 10.910067 -0.000001 0.000001 0.000002 3.446767 -12.064231 20.542465 0.244475 -1.490518 18.627560 0.000004 -0.000001 0.000000 5.051604 -12.175213 29.794552 0.422292 -1.939563 24.563865 -0.000001 -0.000003 -0.000002 1.342796 -13.766105 30.996498 0.457207 -2.014154 25.576314 -0.000001 -0.000002 -0.000000 -0.000001 0.000003 0.000001 -0.000001 0.000001 0.000000 0.000001 0.000003 -0.000000 -0.000001 0.000002 -0.000000 -0.000001 0.000002 -0.000001 -0.000001 0.000002 -0.000000 -0.000001 0.000001 -0.000001 -0.000000 -0.000001 0.000001 -0.000000 -0.000001 0.000001 -0.000000 -0.000001 0.000001 -0.000000 -0.000001 0.000001 -0.000000 -0.000001 0.000001 -0.000000 -0.000001 0.000001 -0.000000 -0.000001 0.000001 -0.000001 0.000001 -0.000000 0.000000 0.000000 -0.000000 
4.305991 88.334175 2.319713 19.363665 62.777969 -18.700621 -0.000000 0.000001 -0.000000 -28.280016 4.888558 16.497320 43.902772 -3.451459 -0.242071 -23.942689 3.546844 -12.318232 -0.000000 -0.000000 0.000000 0.000001 -0.000002 0.000001 -36.059475 -5.883048 -22.555744 29.944208 -7.603534 -1.630973 8.042482 -17.221472 15.951111 0.000000 -0.000002 0.000000 0.000000 -0.000002 0.000000 2.417324 -0.667262 1.889004 4.834966 -1.674976 2.136239 4.838294 -1.666716 2.134807 0.144024 -8.181888 -0.903383 0.144014 -8.181900 -0.903379 0.000002 0.000001 0.000000 0.144100 -8.181913 -0.903367 0.143946 -8.181905 -0.903385 0.000001 -0.000001 0.000000 0.000002 0.000001 -0.000001 3.067207 -12.011074 9.747026 -2.982953 -10.323594 -79.566704 -0.000006 -17.569608 -0.000029 -3.979773 -25.549245 8.716923 3.791400 1.451351 -4.356758 14.493721 27.921709 12.956760 0.000003 -0.000001 -0.000001 0.095258 2.965041 -5.912809 0.126835 1.213700 -11.931640 0.000000 -0.000002 0.000000 0.322038 4.079754 -17.044286 0.284409 1.804835 -17.908124 -0.000001 0.000002 0.000001 0.635426 4.882591 -25.483192 0.480472 2.325405 -23.345124 0.000001 -0.000001 0.000001 0.810127 5.219179 -29.196579 0.596310 2.577043 -26.053326 -0.000003 -0.000002 -0.000000 0.000004 0.000000 0.000000 0.000004 0.000000 0.000000 0.000003 0.000000 0.000000 -0.000001 0.000003 0.000002 -0.000001 0.000002 0.000001 -0.000001 0.000003 0.000002 -0.000003 0.000002 0.000002 3.471059 1.887438 11.358317 -5.151059 -15.503353 57.725016 0.000001 58.869640 0.000005 40.589618 26.160417 5.514398 -2.312493 -18.915748 11.446011 17.303429 -5.952143 -26.984204 -0.000002 -0.000003 0.000001 4.283248 -11.086066 12.998987 0.084352 -0.883326 10.910065 -0.000002 0.000000 0.000001 3.446779 -12.064242 20.542472 0.244480 -1.490504 18.627555 0.000000 -0.000001 -0.000000 5.051608 -12.175207 29.794545 0.422285 -1.939544 24.563855 0.000002 0.000001 0.000000 1.342812 -13.766111 30.996484 0.457230 -2.014165 25.576321 -0.000003 0.000003 -0.000003 -0.000000 0.000002 -0.000000 0.000003 -0.000001 0.000003 -0.000000 0.000003 0.000001 -0.000002 0.000000 -0.000001 -0.000002 0.000001 -0.000001 -0.000002 0.000000 -0.000001 -0.000002 -0.000000 -0.000001 0.000001 -0.000001 0.000000 0.000001 -0.000001 0.000000 0.000001 -0.000001 0.000000 0.000001 -0.000001 0.000000 0.000001 -0.000001 0.000000 0.000001 -0.000001 0.000000 0.000001 -0.000001 0.000000 -0.000000 0.000001 0.000000 -0.000000 0.000001 -0.000000 
4.297011 88.206604 2.336948 19.356823 62.433168 -18.574901 -0.000000 -0.000000 -0.000000 -28.546216 4.905916 16.690052 44.428523 -3.698602 -0.379146 -24.137644 3.627099 -12.562893 -0.000000 -0.000000 -0.000000 -0.000000 0.000000 -0.000000 -36.681627 -5.627398 -22.628791 30.580314 -7.605708 -1.625235 7.824115 -16.935478 15.883110 0.000000 0.000001 -0.000000 -0.000001 0.000001 -0.000000 2.379767 -0.596385 1.875037 4.759705 -1.544960 2.064290 4.762866 -1.536623 2.062859 0.180267 -7.983901 -0.928673 0.180273 -7.983903 -0.928666 0.000003 -0.000001 0.000001 0.180417 -7.983894 -0.928643 0.180126 -7.983969 -0.928678 -0.000001 -0.000001 -0.000001 0.000003 -0.000001 0.000001 3.640829 -14.542613 11.350357 -1.471913 -10.522684 -80.882943 0.000004 -17.343512 -0.000015 -6.066157 -25.921811 9.422722 3.791407 1.451354 -4.356736 14.493725 27.921690 12.956758 0.000001 0.000001 -0.000001 0.095258 2.965035 -5.912795 0.126834 1.213709 -11.931638 -0.000001 -0.000002 -0.000000 0.322039 4.079746 -17.044286 0.284409 1.804831 -17.908128 -0.000001 -0.000001 -0.000000 0.635425 4.882586 -25.483192 0.480479 2.325405 -23.345105 -0.000000 0.000001 -0.000001 0.810124 5.219174 -29.196603 0.596317 2.577053 -26.053350 0.000002 -0.000005 0.000000 0.000000 -0.000001 0.000000 0.000000 -0.000001 0.000000 -0.000001 -0.000001 0.000000 0.000001 0.000000 -0.000000 0.000001 -0.000001 -0.000000 0.000001 0.000000 -0.000000 0.000001 0.000001 -0.000000 3.571729 0.034620 11.618968 -4.866649 -15.201132 57.839271 -0.000035 58.931753 0.000024 40.701005 26.194283 5.310326 -2.312488 -18.915756 11.446007 17.303436 -5.952144 -26.984209 -0.000004 -0.000003 0.000001 4.283240 -11.086057 12.999000 0.084353 -0.883343 10.910059 -0.000002 -0.000001 -0.000000 3.446771 -12.064219 20.542470 0.244455 -1.490512 18.627543 -0.000002 -0.000001 -0.000001 5.051621 -12.175213 29.794542 0.422298 -1.939543 24.563870 -0.000003 0.000000 0.000003 1.342817 -13.766113 30.996481 0.457216 -2.014142 25.576316 -0.000003 0.000002 0.000000 0.000000 0.000001 -0.000002 0.000000 0.000001 0.000000 0.000002 0.000001 -0.000003 -0.000000 -0.000002 -0.000003 -0.000000 -0.000001 -0.000003 -0.000000 -0.000002 -0.000003 -0.000000 -0.000001 -0.000003 -0.000000 0.000002 -0.000002 -0.000000 0.000002 -0.000002 -0.000000 0.000002 -0.000002 -0.000000 0.000002 -0.000002 -0.000000 0.000002 -0.000002 -0.000000 0.000002 -0.000002 -0.000000 0.000002 -0.000002 -0.000001 -0.000002 -0.000000 -0.000000 -0.000000 -0.000000 
4.256796 87.989426 2.272360 19.645139 62.214110 -18.621123 -0.000000 -0.000000 -0.000000 -29.970423 3.910051 16.173803 46.154535 -4.310319 0.056335 -23.618033 3.484780 -12.430944 0.000000 0.000002 0.000000 0.000000 -0.000002 0.000001 -37.614750 -5.191618 -22.908933 31.680087 -7.567843 -1.613754 7.482448 -16.801787 15.943229 -0.000000 0.000002 -0.000000 -0.000000 -0.000002 0.000002 2.349437 -0.588003 1.877153 4.696581 -1.568741 1.907002 4.700196 -1.559397 1.905387 0.206373 -7.778474 -0.891337 0.206382 -7.778424 -0.891348 0.000002 -0.000001 0.000001 0.206377 -7.778478 -0.891337 0.206444 -7.778443 -0.891327 -0.000000 -0.000001 -0.000001 0.000002 -0.000001 -0.000000 4.344723 -17.083232 13.523293 0.134673 -11.004662 -82.499164 0.000009 -16.996325 -0.000004 -8.295116 -26.346505 10.212664 3.791397 1.451344 -4.356738 14.493714 27.921699 12.956737 0.000000 0.000000 -0.000001 0.095246 2.965030 -5.912798 0.126842 1.213712 -11.931641 0.000001 0.000000 -0.000000 0.322043 4.079748 -17.044283 0.284396 1.804830 -17.908138 0.000001 -0.000002 -0.000001 0.635425 4.882580 -25.483178 0.480479 2.325402 -23.345108 -0.000001 0.000001 0.000000 0.810119 5.219179 -29.196600 0.596318 2.577053 -26.053318 0.000002 -0.000002 0.000002 0.000001 0.000001 -0.000000 0.000001 0.000001 -0.000000 0.000000 0.000001 0.000000 0.000001 0.000000 -0.000000 0.000001 -0.000001 -0.000000 0.000001 0.000000 -0.000000 0.000001 -0.000001 -0.000000 3.714611 -1.858686 12.094484 -4.713052 -14.624470 57.726915 -0.000038 58.899863 0.000025 40.897291 26.326156 4.963804 -2.312504 -18.915751 11.446027 17.303420 -5.952157 -26.984214 -0.000000 -0.000005 -0.000001 4.283230 -11.086066 12.999020 0.084353 -0.883335 10.910058 -0.000002 -0.000000 -0.000001 3.446770 -12.064226 20.542475 0.244466 -1.490505 18.627553 -0.000001 -0.000001 -0.000000 5.051605 -12.175205 29.794559 0.422288 -1.939556 24.563875 0.000001 0.000001 -0.000000 1.342798 -13.766111 30.996484 0.457219 -2.014153 25.576343 0.000000 0.000002 -0.000003 0.000003 -0.000003 0.000001 0.000003 -0.000001 0.000003 0.000003 -0.000003 0.000002 -0.000003 -0.000002 -0.000001 -0.000003 -0.000001 -0.000001 -0.000003 -0.000002 -0.000001 -0.000003 -0.000001 -0.000001 0.000002 0.000000 -0.000000 0.000002 0.000000 -0.000000 0.000002 0.000000 -0.000000 0.000002 0.000000 -0.000000 0.000002 0.000000 -0.000000 0.000002 0.000000 -0.000000 0.000002 0.000000 -0.000000 -0.000000 -0.000002 0.000000 -0.000000 -0.000000 -0.000000 
